<?xml version="1.0" encoding="UTF-8" standalone="no"?><!DOCTYPE svg PUBLIC "-//W3C//DTD SVG 1.1//EN" "http://www.w3.org/Graphics/SVG/1.1/DTD/svg11.dtd"><svg width="100%" height="100%" viewBox="0 0 339 339" version="1.1" xmlns="http://www.w3.org/2000/svg" xmlns:xlink="http://www.w3.org/1999/xlink" xml:space="preserve" style="fill-rule:evenodd;clip-rule:evenodd;stroke-linejoin:round;stroke-miterlimit:1.41421;"><circle cx="169.275" cy="169.275" r="169.275" style="fill:none;"/><clipPath id="_clip1"><circle cx="169.275" cy="169.275" r="169.275"/></clipPath><g clip-path="url(#_clip1)"><rect x="-161.225" y="-114.451" width="661" height="686" style="fill:url(#_Linear2);"/></g><g><path d="M226.512,232.22l30.381,30.4l-23.998,23.998l-27.472,-27.472c0.193,-0.157 0.386,-0.314 0.578,-0.473c6.432,-5.312 11.994,-11.678 16.373,-18.779c1.527,-2.476 2.909,-5.039 4.138,-7.674Zm-111.209,-111.236l60.66,60.684c0.86,0.865 1.665,1.782 2.399,2.756c1.443,1.913 2.616,4.026 3.475,6.263c1.215,3.163 1.797,6.563 1.716,9.949c-0.077,3.235 -0.759,6.451 -2.01,9.435c-1.123,2.676 -2.703,5.153 -4.647,7.306c-1.978,2.189 -4.322,4.043 -6.916,5.447c-0.191,0.103 -0.383,0.204 -0.576,0.302l-36.689,-36.69l0,0c-17.626,-17.76 -23.431,-42.859 -17.412,-65.452Zm30.31,-40.493c26.16,-15.94 60.795,-12.605 83.408,10.008l-24.031,24.03c-9.153,-9.153 -22.246,-11.989 -33.841,-8.508l-11.699,-11.697l-13.837,-13.833Z" style="fill:#fff;"/><path d="M205.883,152.136l-0.001,0.001c26.342,26.54 26.28,69.473 -0.184,95.937c-26.525,26.525 -69.596,26.525 -96.121,0l24.03,-24.031c13.263,13.263 34.798,13.263 48.061,0c13.263,-13.263 13.263,-34.798 0,-48.061c-0.094,-0.093 -100.011,-100.053 -100.011,-100.053l23.997,-23.998l100.229,100.205Z" style="fill:#fff;"/></g><defs><linearGradient id="_Linear2" x1="0" y1="0" x2="1" y2="0" gradientUnits="userSpaceOnUse" gradientTransform="matrix(661,686,-330.5,1372,-161.225,-114.451)"><stop offset="0%" style="stop-color:#16a085;stop-opacity:1"/><stop offset="100%" style="stop-color:#f4d03f;stop-opacity:1"/></linearGradient></defs></svg>