<?xml version="1.0" encoding="UTF-8" standalone="no"?><!DOCTYPE svg PUBLIC "-//W3C//DTD SVG 1.1//EN" "http://www.w3.org/Graphics/SVG/1.1/DTD/svg11.dtd"><svg width="100%" height="100%" viewBox="0 0 176 235" version="1.1" xmlns="http://www.w3.org/2000/svg" xmlns:xlink="http://www.w3.org/1999/xlink" xml:space="preserve" style="fill-rule:evenodd;clip-rule:evenodd;stroke-linejoin:round;stroke-miterlimit:1.41421;"><path d="M144.856,180.289l30.38,30.4l-23.998,23.998l-27.472,-27.473c0.194,-0.156 0.386,-0.314 0.578,-0.472c6.432,-5.313 11.994,-11.678 16.373,-18.78c1.527,-2.475 2.909,-5.039 4.139,-7.673Zm-111.21,-111.237l60.66,60.685c0.86,0.865 1.665,1.782 2.4,2.756c1.442,1.913 2.615,4.026 3.474,6.263c1.215,3.163 1.797,6.562 1.716,9.949c-0.077,3.235 -0.758,6.451 -2.01,9.435c-1.122,2.676 -2.702,5.153 -4.647,7.306c-1.978,2.188 -4.321,4.043 -6.916,5.447c-0.191,0.103 -0.383,0.204 -0.576,0.302l-36.689,-36.69l0,-0.001c-17.626,-17.759 -23.43,-42.858 -17.412,-65.452Zm30.31,-40.492c26.16,-15.941 60.796,-12.605 83.408,10.008l-24.03,24.03c-9.154,-9.153 -22.247,-11.989 -33.842,-8.508l-11.699,-11.697l-13.837,-13.833Z" style="fill:#fff;fill-opacity:0.6;"/><path d="M124.226,100.205l-0.001,0.001c26.342,26.54 26.28,69.472 -0.184,95.936c-26.525,26.526 -69.596,26.526 -96.121,0l24.03,-24.03c13.263,13.263 34.798,13.263 48.061,0c13.263,-13.263 13.263,-34.798 0,-48.061c-0.093,-0.093 -100.011,-100.053 -100.011,-100.053l23.998,-23.998l100.228,100.205Z" style="fill:#fff;"/></svg>